<?xml version="1.0" encoding="UTF-8" standalone="no"?>
<!DOCTYPE svg PUBLIC "-//W3C//DTD SVG 1.1//EN" "http://www.w3.org/Graphics/SVG/1.1/DTD/svg11.dtd">
<svg version="1.1" xmlns="http://www.w3.org/2000/svg" xmlns:xlink="http://www.w3.org/1999/xlink" preserveAspectRatio="xMidYMid meet" viewBox="0 0 330 300" width="30" height="30">
    <defs>
        <path d="M218.57 81.43C218.57 43.72 187.72 12.86 150 12.86C112.28 12.86 81.43 43.72 81.43 81.43C81.43 119.14 112.28 150 150 150C187.72 150 218.57 119.14 218.57 81.43ZM150 184.29C104.57 184.29 12.86 207.43 12.86 252.86C12.86 255.14 12.86 266.57 12.86 287.14L287.14 287.14C287.14 266.57 287.14 255.14 287.14 252.86C287.14 207.43 195.43 184.29 150 184.29" id="eaaZaMb9j"></path><path d="M323.37 205C323.37 235.36 298.72 260 268.37 260C238.01 260 213.37 235.36 213.37 205C213.37 174.64 238.01 150 268.37 150C298.72 150 323.37 174.64 323.37 205Z" id="a83602FRFO"></path><path d="M316.37 205C316.37 231.49 294.86 253 268.37 253C241.88 253 220.37 231.49 220.37 205C220.37 178.51 241.88 157 268.37 157C294.86 157 316.37 178.51 316.37 205Z" id="aPH3wREys"></path><path d="M309.96 226.61L302.29 237.21L225.32 181.53L232.99 170.93L309.96 226.61Z" id="bdUjeT31F"></path></defs><g><g><g><use xlink:href="#eaaZaMb9j" opacity="1" fill="#000000" fill-opacity="1"></use><g><use xlink:href="#eaaZaMb9j" opacity="1" fill-opacity="0" stroke="#000000" stroke-width="1" stroke-opacity="0"></use></g></g><g><use xlink:href="#a83602FRFO" opacity="1" fill="#ffffff" fill-opacity="1"></use></g><g><g><filter id="shadow10266600" x="195.37" y="132" width="151" height="151" filterUnits="userSpaceOnUse" primitiveUnits="userSpaceOnUse"><feFlood></feFlood><feComposite in2="SourceAlpha" operator="in"></feComposite><feGaussianBlur stdDeviation="2.24"></feGaussianBlur><feOffset dx="5" dy="5" result="afterOffset"></feOffset><feFlood flood-color="#000000" flood-opacity="0.5"></feFlood><feComposite in2="afterOffset" operator="in"></feComposite><feMorphology operator="dilate" radius="5"></feMorphology><feComposite in2="SourceAlpha" operator="out"></feComposite></filter><path d="M316.37 205C316.37 231.49 294.86 253 268.37 253C241.88 253 220.37 231.49 220.37 205C220.37 178.51 241.88 157 268.37 157C294.86 157 316.37 178.51 316.37 205Z" id="bgFSfPVXa" fill="white" fill-opacity="1" filter="url(#shadow10266600)"></path></g><use xlink:href="#aPH3wREys" opacity="1" fill="#ffffff" fill-opacity="1"></use><g><use xlink:href="#aPH3wREys" opacity="1" fill-opacity="0" stroke="#000000" stroke-width="10" stroke-opacity="1"></use></g></g><g><use xlink:href="#bdUjeT31F" opacity="1" fill="#000000" fill-opacity="1"></use></g></g></g></svg>
