<?xml version="1.0" encoding="utf-8"?>
<!-- Generator: Adobe Illustrator 19.0.0, SVG Export Plug-In . SVG Version: 6.00 Build 0)  -->
<svg version="1.1" id="Layer_1" xmlns="http://www.w3.org/2000/svg" xmlns:xlink="http://www.w3.org/1999/xlink" x="0px" y="0px"
	 viewBox="0 0 512 512" style="enable-background:new 0 0 512 512;" xml:space="preserve">
<g id="XMLID_7_">
	<path id="XMLID_13_" d="M245,215.8L232.2,203l-56.7-56.7l-35.7-36.6L55.8,25.6L29.3,0L0,29.3l46.6,46.6v395l93.3-93.3h209.4
		L482.7,512l29.3-29.3L407.8,378.5L245,215.8z M186.5,285.3h-46.6v-46.6h46.6V285.3z M139.9,215.8v-46.6l46.6,46.6H139.9z
		 M465.4,6.4H95.1l138.1,138.1V99.7h186.5v46.6H235l22.9,22.9h160.9v46.6H304.5l162.7,162.7c24.7-0.9,44.8-21,44.8-46.6V53
		C512,27.4,491,6.4,465.4,6.4z"/>
</g>
</svg>
