<?xml version="1.0" standalone="no"?>
<svg version="1.0" xmlns="http://www.w3.org/2000/svg"
 width="55px" height="50px" viewBox="35 0 850 650"
 preserveAspectRatio="xMidYMid meet">

<g transform="translate(0.000000,700.000000) scale(0.100000,-0.100000)"
fill="black" stroke="black">
<path d="M4419 6579 c-555 -81 -992 -535 -1050 -1089 -35 -339 93 -749 541
-1725 132 -287 445 -915 523 -1050 22 -38 56 -85 74 -102 31 -30 41 -33 93
-33 53 0 60 3 93 37 50 51 117 175 357 658 389 786 593 1260 709 1653 92 310
99 556 24 796 -102 325 -325 582 -638 736 -130 64 -248 102 -369 119 -88 13
-274 13 -357 0z m328 -605 c124 -30 209 -78 298 -168 66 -66 90 -99 130 -181
l50 -100 0 -170 0 -170 -37 -77 c-91 -191 -210 -301 -393 -364 -69 -23 -96
-27 -195 -27 -99 0 -126 4 -195 27 -179 61 -292 163 -388 350 l-42 81 -3 161
c-3 153 -2 165 21 223 41 101 88 172 167 251 91 92 185 142 315 170 99 22 163
20 272 -6z"/>
<path d="M2445 3751 c-77 -19 -118 -64 -331 -371 -517 -743 -1458 -2130 -1498
-2207 -43 -85 10 -218 109 -271 26 -13 124 -17 760 -24 768 -10 6760 -2 6904
8 l84 6 52 52 c71 69 92 145 61 219 -23 56 -423 637 -960 1397 -558 790 -823
1151 -863 1178 -25 16 -70 17 -577 17 l-550 0 -108 -229 c-60 -126 -106 -231
-103 -235 4 -3 232 -8 507 -11 l501 -5 -199 -141 c-110 -77 -209 -146 -220
-152 -25 -13 -65 1 -383 137 -116 50 -218 91 -225 91 -8 0 -23 -12 -34 -27
-23 -33 -122 -229 -122 -241 0 -5 44 -28 98 -52 179 -79 717 -322 722 -327 3
-3 -15 -23 -40 -45 -105 -95 -636 -520 -887 -712 l-103 -78 -534 367 c-295
201 -545 374 -557 384 -21 17 -20 17 75 66 53 28 96 54 96 59 0 14 -122 245
-136 256 -9 8 -124 -45 -446 -206 l-435 -217 -191 154 c-106 84 -191 157 -189
162 1 5 27 19 57 32 30 12 271 111 535 220 264 108 484 201 489 205 5 5 -22
73 -64 160 -39 83 -95 203 -124 268 l-52 117 -545 2 c-299 0 -557 -2 -574 -6z
m621 -478 c-17 -17 -591 -242 -594 -233 -4 11 122 205 140 216 6 4 25 11 42
15 40 9 422 11 412 2z m3682 -310 c73 -97 306 -430 321 -460 7 -14 8 -23 2
-23 -18 0 -564 241 -685 302 -38 19 -38 20 -20 38 23 23 306 219 316 220 4 0
33 -35 66 -77z m-4439 -305 c94 -70 438 -347 452 -364 11 -14 10 -18 -6 -27
-131 -78 -1235 -641 -1242 -633 -8 7 14 40 340 511 265 382 388 554 396 555 2
0 29 -19 60 -42z m4376 -365 c121 -52 348 -151 505 -221 l285 -127 202 -285
c112 -157 203 -288 203 -292 0 -4 -512 -9 -1137 -10 l-1138 -3 -90 59 c-116
75 -177 125 -169 137 7 11 544 441 794 635 250 195 280 215 304 208 12 -3 120
-49 241 -101z m-2874 -101 c112 -76 326 -221 474 -323 149 -102 370 -254 492
-338 122 -84 225 -156 228 -162 4 -5 -610 -9 -1651 -9 -971 0 -1654 4 -1648 9
21 20 1871 960 1890 961 6 0 102 -62 215 -138z"/>
</g>
</svg>
