<svg width="93" height="15" viewBox="0 0 93 15" fill="none" xmlns="http://www.w3.org/2000/svg">
<path d="M8.02637 9.3418C8.02637 10.8242 7.69824 12.002 7.04199 12.875C6.38574 13.7422 5.50391 14.1758 4.39648 14.1758C3.07227 14.1758 2.07031 13.6836 1.39062 12.6992L1.34668 14H0.362305V0.5H1.4082V5.87012C2.07617 4.83301 3.06641 4.31445 4.37891 4.31445C5.50391 4.31445 6.3916 4.74512 7.04199 5.60645C7.69824 6.46191 8.02637 7.6543 8.02637 9.18359V9.3418ZM6.97168 9.15723C6.97168 7.90332 6.72852 6.93652 6.24219 6.25684C5.75586 5.57129 5.07031 5.22852 4.18555 5.22852C3.51172 5.22852 2.94043 5.39551 2.47168 5.72949C2.00293 6.05762 1.64844 6.54102 1.4082 7.17969V11.4688C1.93555 12.6641 2.86719 13.2617 4.20312 13.2617C5.07031 13.2617 5.74707 12.9189 6.2334 12.2334C6.72559 11.5479 6.97168 10.5225 6.97168 9.15723ZM14.0381 14.1758C13.2295 14.1758 12.4971 13.9766 11.8408 13.5781C11.1904 13.1797 10.6836 12.626 10.3203 11.917C9.95703 11.2021 9.77539 10.4023 9.77539 9.51758V9.13965C9.77539 8.22559 9.95117 7.40234 10.3027 6.66992C10.6602 5.9375 11.1553 5.36328 11.7881 4.94727C12.4209 4.52539 13.1064 4.31445 13.8447 4.31445C14.999 4.31445 15.9131 4.70996 16.5869 5.50098C17.2666 6.28613 17.6064 7.36133 17.6064 8.72656V9.31543H10.8213V9.51758C10.8213 10.5957 11.1289 11.4951 11.7441 12.2158C12.3652 12.9307 13.1445 13.2881 14.082 13.2881C14.6445 13.2881 15.1396 13.1855 15.5674 12.9805C16.001 12.7754 16.3936 12.4473 16.7451 11.9961L17.4043 12.4971C16.6309 13.6162 15.5088 14.1758 14.0381 14.1758ZM13.8447 5.21094C13.0537 5.21094 12.3857 5.50098 11.8408 6.08105C11.3018 6.66113 10.9736 7.44043 10.8564 8.41895H16.5605V8.30469C16.5312 7.39062 16.2705 6.64648 15.7783 6.07227C15.2861 5.49805 14.6416 5.21094 13.8447 5.21094ZM21.9307 11.8115L22.0889 12.6289L22.2998 11.7676L24.585 4.49023H25.4814L27.7402 11.7061L27.9863 12.708L28.1885 11.7852L30.1396 4.49023H31.2295L28.4609 14H27.5645L25.1211 6.45898L25.0068 5.94043L24.8926 6.46777L22.4932 14H21.5967L18.8369 4.49023H19.918L21.9307 11.8115ZM32.6445 9.10449C32.6445 8.19043 32.8203 7.36719 33.1719 6.63477C33.5293 5.90234 34.0303 5.33398 34.6748 4.92969C35.3252 4.51953 36.0605 4.31445 36.8809 4.31445C38.1465 4.31445 39.1719 4.75977 39.957 5.65039C40.7422 6.53516 41.1348 7.70996 41.1348 9.1748V9.39453C41.1348 10.3145 40.9561 11.1436 40.5986 11.8818C40.2471 12.6143 39.749 13.1797 39.1045 13.5781C38.46 13.9766 37.7246 14.1758 36.8984 14.1758C35.6387 14.1758 34.6133 13.7334 33.8223 12.8486C33.0371 11.958 32.6445 10.7803 32.6445 9.31543V9.10449ZM33.6992 9.39453C33.6992 10.5312 33.9922 11.4658 34.5781 12.1982C35.1699 12.9248 35.9434 13.2881 36.8984 13.2881C37.8477 13.2881 38.6152 12.9248 39.2012 12.1982C39.793 11.4658 40.0889 10.502 40.0889 9.30664V9.10449C40.0889 8.37793 39.9541 7.71289 39.6846 7.10938C39.415 6.50586 39.0371 6.04004 38.5508 5.71191C38.0645 5.37793 37.5078 5.21094 36.8809 5.21094C35.9434 5.21094 35.1787 5.58008 34.5869 6.31836C33.9951 7.05078 33.6992 8.01172 33.6992 9.20117V9.39453ZM34.2441 1.73047C34.2441 1.53125 34.3086 1.36426 34.4375 1.22949C34.5664 1.08887 34.7422 1.01855 34.9648 1.01855C35.1875 1.01855 35.3633 1.08887 35.4922 1.22949C35.627 1.36426 35.6943 1.53125 35.6943 1.73047C35.6943 1.92383 35.627 2.08789 35.4922 2.22266C35.3633 2.35742 35.1875 2.4248 34.9648 2.4248C34.7422 2.4248 34.5664 2.35742 34.4375 2.22266C34.3086 2.08789 34.2441 1.92383 34.2441 1.73047ZM38.0938 1.73926C38.0938 1.54004 38.1582 1.37305 38.2871 1.23828C38.416 1.09766 38.5918 1.02734 38.8145 1.02734C39.0371 1.02734 39.2129 1.09766 39.3418 1.23828C39.4766 1.37305 39.5439 1.54004 39.5439 1.73926C39.5439 1.93262 39.4766 2.09668 39.3418 2.23145C39.2129 2.36621 39.0371 2.43359 38.8145 2.43359C38.5918 2.43359 38.416 2.36621 38.2871 2.23145C38.1582 2.09668 38.0938 1.93262 38.0938 1.73926ZM44.4922 14H43.4375V0.5H44.4922V14ZM49.6162 9.20996L48.4121 10.3701V14H47.3574V0.5H48.4121V9.13965L49.4053 8.06738L53.0439 4.49023H54.3711L50.3369 8.49805L54.7227 14H53.4658L49.6162 9.20996ZM57.8164 2.05566V4.49023H59.7852V5.35156H57.8164V11.6885C57.8164 12.2158 57.9102 12.6084 58.0977 12.8662C58.291 13.124 58.6104 13.2529 59.0557 13.2529C59.2314 13.2529 59.5156 13.2236 59.9082 13.165L59.9521 14.0264C59.6768 14.126 59.3018 14.1758 58.8271 14.1758C58.1064 14.1758 57.582 13.9678 57.2539 13.5518C56.9258 13.1299 56.7617 12.5117 56.7617 11.6973V5.35156H55.0127V4.49023H56.7617V2.05566H57.8164ZM74.0586 1.80957L68.5918 14H67.4932L72.9248 2.09961H65.6475V1.20312H74.0586V1.80957ZM80.4922 3.22461C80.4922 3.83398 80.2842 4.34668 79.8682 4.7627C79.4521 5.17871 78.9512 5.38672 78.3652 5.38672C77.7734 5.38672 77.2666 5.17871 76.8447 4.7627C76.4229 4.34082 76.2119 3.82813 76.2119 3.22461C76.2119 2.62109 76.4258 2.10547 76.8535 1.67773C77.2812 1.24414 77.7852 1.02734 78.3652 1.02734C78.9453 1.02734 79.4434 1.24414 79.8594 1.67773C80.2812 2.10547 80.4922 2.62109 80.4922 3.22461ZM77.0029 3.22461C77.0029 3.61719 77.1318 3.94238 77.3896 4.2002C77.6533 4.45801 77.9785 4.58691 78.3652 4.58691C78.752 4.58691 79.0713 4.45801 79.3232 4.2002C79.5752 3.94238 79.7012 3.61719 79.7012 3.22461C79.7012 2.82031 79.5752 2.48633 79.3232 2.22266C79.0713 1.95898 78.752 1.82715 78.3652 1.82715C77.9844 1.82715 77.6621 1.95898 77.3984 2.22266C77.1348 2.48633 77.0029 2.82031 77.0029 3.22461ZM92.4365 10.0098C92.29 11.3574 91.8066 12.3887 90.9863 13.1035C90.1719 13.8184 89.085 14.1758 87.7256 14.1758C86.7764 14.1758 85.9355 13.9385 85.2031 13.4639C84.4766 12.9893 83.9141 12.3184 83.5156 11.4512C83.1172 10.5781 82.915 9.58203 82.9092 8.46289V6.80176C82.9092 5.66504 83.1084 4.65723 83.5068 3.77832C83.9053 2.89941 84.4766 2.22266 85.2207 1.74805C85.9707 1.26758 86.832 1.02734 87.8047 1.02734C89.1758 1.02734 90.2568 1.39941 91.0479 2.14355C91.8447 2.88184 92.3076 3.9043 92.4365 5.21094H91.3467C91.0771 3.03711 89.8965 1.9502 87.8047 1.9502C86.6445 1.9502 85.7188 2.38379 85.0273 3.25098C84.3418 4.11816 83.999 5.31641 83.999 6.8457V8.41016C83.999 9.88672 84.333 11.0645 85.001 11.9434C85.6748 12.8223 86.583 13.2617 87.7256 13.2617C88.8564 13.2617 89.709 12.9922 90.2832 12.4531C90.8574 11.9082 91.2119 11.0938 91.3467 10.0098H92.4365Z" fill="#414141"/>
</svg>
